{"title":"A Tale Of Legendary Libido (Garoojigi) 720p","uid":12228154,"size":2126406917,"categoryP":"video","categoryS":"hd___movies","magnet":"?xt=urn:btih:728abb706805b5608cf39d202ea52ce3914c9509&amp;dn=A+Tale+Of+Legendary+Libido+%28Garoojigi%29+720p&amp;tr=udp%3A%2F%2Ftracker.openbittorrent.com%3A80&amp;tr=udp%3A%2F%2Fopen.demonii.com%3A1337&amp;tr=udp%3A%2F%2Ftracker.coppersurfer.tk%3A6969&amp;tr=udp%3A%2F%2Fexodus.desync.com%3A6969","seeders":0,"leechers":0,"uploader":"alex.bvx","files":13,"time":1439511132,"description":"General\nComplete name                  : A Tale Of Legendary Libido (Garoojigi) 720p.mkv\nFormat                         : Matroska\nFormat version                 : Version 2\nFile size                      : 1.98 GiB\nDuration                       : 1h 46mn\nOverall bit rate               : 2 661 Kbps\nEncoded date                   : UTC 2012-04-17 05:11:13\nWriting application            : mkvmerge v5.4.0 ('Piper') built on Mar 10 2012 13:34:39\nWriting library                : libebml v1.2.3 + libmatroska v1.3.0\n\nVideo\nID                             : 1\nFormat                         : AVC\nFormat/Info                    : Advanced Video Codec\nFormat settings, CABAC         : Yes\nFormat settings, ReFrames      : 4 frames\nMuxing mode                    : Header stripping\nCodec ID                       : V_MPEG4/ISO/AVC\nDuration                       : 1h 46mn\nBit rate                       : 2 215 Kbps\nWidth                          : 1 280 pixels\nHeight                         : 720 pixels\nDisplay aspect ratio           : 16:9\nFrame rate mode                : Constant\nFrame rate                     : 23.976 fps\nColor space                    : YUV\nChroma subsampling             : 4:2:0\nBit depth                      : 8 bits\nScan type                      : Progressive\nBits/(Pixel*Frame)             : 0.100\nStream size                    : 1.61 GiB (81%)\nWriting library                : x264 core 68 r1183M f21daff\nDefault                        : Yes\nForced                         : No\n\nAudio\nID                             : 2\nFormat                         : AC-3\nFormat/Info                    : Audio Coding 3\nMode extension                 : CM (complete main)\nFormat settings, Endianness    : Big\nMuxing mode                    : Header stripping\nCodec ID                       : A_AC3\nDuration                       : 1h 46mn\nBit rate mode                  : Constant\nBit rate                       : 448 Kbps\nChannel(s)                     : 6 channels\nChannel positions              : Front: L C R, Side: L R, LFE\nSampling rate                  : 48.0 KHz\nBit depth                      : 16 bits\nCompression mode               : Lossy\nStream size                    : 341 MiB (17%)\nLanguage                       : Korean\nDefault                        : Yes\nForced                         : No\n\nText\nID                             : 3\nFormat                         : SSA\nCodec ID                       : S_TEXT/SSA\nCodec ID/Info                  : Sub Station Alpha\nCompression mode               : Lossless\nTitle                          : Sutitulos\nLanguage                       : Spanish\nDefault                        : Yes\nForced                         : No","torrent":{"xt":"urn:btih:728abb706805b5608cf39d202ea52ce3914c9509","amp;dn":"A+Tale+Of+Legendary+Libido+%28Garoojigi%29+720p","amp;tr":["udp%3A%2F%2Ftracker.openbittorrent.com%3A80","udp%3A%2F%2Fopen.demonii.com%3A1337","udp%3A%2F%2Ftracker.coppersurfer.tk%3A6969","udp%3A%2F%2Fexodus.desync.com%3A6969"],"infoHash":"728abb706805b5608cf39d202ea52ce3914c9509","infoHashBuffer":{"type":"Buffer","data":[114,138,187,112,104,5,181,96,140,243,157,32,46,165,44,227,145,76,149,9]},"announce":[],"urlList":[]}}